<svg xmlns="http://www.w3.org/2000/svg" width="82" height="30" viewBox="0 0 82 30">
    <path fill="#FFF" fill-rule="evenodd" d="M76.55 13v4.143c0 1.652-.222 2.913-.71 4.194-.487 1.281-1.296 2.948-2.602 4.358-1.305 1.41-2.64 2.566-5.36 3.573-2.72 1.006-5.456.775-6.878.478 2.177-1.04 4.006-2.605 5.403-4.51.65-.304 2.413-.812 4.073-2.946a8.36 8.36 0 0 0 1.738-5.147L72.215 13h-1.673c-.29 0-.542-.227-.542-.509v-.977c0-.319.282-.514.547-.514h1.669l.001-4.57c0-.573.04-2.75 1.991-4.64C76.161-.1 78.244 0 78.774 0h2.172C81.45 0 82 .447 82 1.07v2.13a1.09 1.09 0 0 1-1.097 1.08h-2.115c-2.17 0-2.237 2.144-2.237 2.144V11h2.907c.315 0 .542.26.542.505v1.009c0 .289-.289.486-.535.486h-2.914zm-52.87-2.136c.74.656 1.62 1.993 1.827 2.76.581 2.035.814 4.747-.242 7.799-.417 1.045-.667 1.682-1.32 2.68-2.435 3.71-5.94 5.143-8.267 5.628-1.424.277-2.63.269-2.63.269s-.416.005-1.07-.054c-.476-.029-2.796-.225-5.14-1.47-1.688-.873-3.026-2.02-4.166-3.458-1.338-1.689-2.1-3.84-2.362-5.072-.318-1.498-.31-2.308-.31-2.823V1.072C0 .518.484 0 1.08 0h2.162C3.725 0 4.33.39 4.33 1.046v14.302c0 1.527-.155 3.974 1.334 6.37 1.151 1.854 3.24 3.034 3.533 3.172.614.3 2.051.843 3.79.843a9.707 9.707 0 0 0 4.17-1.072c1.394-.73 2.628-2.03 3.277-3.15 1.128-1.947 1.203-3.548 1.203-4.368 0-1.43-.275-2.588-.81-3.065a2.005 2.005 0 0 0-1.356-.52c-.507 0-1.416.262-1.815 1.212-.399 1-.342 2.065-.342 2.36 0 .157-.056.964.208 1.98.237.916.59 1.751 1.052 2.484.07.126.15.251.224.36.043.064-1.559 1.821-3.643 2.338-.314-.466-1.032-1.6-1.397-2.71-.208-.634-.779-2.178-.779-4.44 0-2.26.496-3.521.655-3.974.085-.245.705-1.602 2.046-2.646 1.522-1.191 3.304-1.258 3.845-1.258 1.321 0 2.72.366 4.156 1.6zm27.069-.243c.718.664 1.572 2.018 1.772 2.796.564 2.06.79 4.806-.234 7.896-.405 1.059-.648 1.705-1.282 2.715-2.363 3.757-5.765 5.208-8.023 5.7-1.382.28-2.553.272-2.553.272s-.403.005-1.038-.055c-.462-.029-2.714-.227-4.989-1.488-.136-.073-.27-.149-.402-.226 1.068-.832 2.435-2.283 2.996-3.263.698.307 1.929.71 3.375.71a9.102 9.102 0 0 0 4.046-1.085c1.354-.74 2.55-2.055 3.181-3.19 1.095-1.972 1.168-3.593 1.168-4.424 0-1.448-.268-2.62-.786-3.104a1.899 1.899 0 0 0-1.317-.526c-.492 0-1.374.265-1.761 1.228-.387 1.012-.332 2.09-.332 2.39 0 .158-.054.975.201 2.004.231.928.573 1.774 1.021 2.516.068.127.147.254.218.364.042.066-1.513 1.845-3.536 2.368-.304-.471-1.001-1.62-1.355-2.744-.202-.642-.756-2.206-.756-4.496 0-2.29.481-3.566.635-4.025.083-.248.684-1.622 1.986-2.68C44.462 9.068 46.19 9 46.716 9c1.282 0 2.64.37 4.033 1.62zm15 0c.718.664 1.572 2.018 1.772 2.796.565 2.06.79 4.806-.234 7.896-.405 1.059-.648 1.705-1.282 2.715-2.363 3.757-5.765 5.208-8.023 5.7-1.382.28-2.553.272-2.553.272s-.403.005-1.038-.055c-.462-.029-2.714-.227-4.989-1.488-.136-.073-.27-.149-.402-.226 1.068-.832 2.435-2.283 2.996-3.263.698.307 1.929.71 3.375.71a9.1 9.1 0 0 0 4.046-1.085c1.354-.74 2.551-2.055 3.181-3.19 1.095-1.972 1.168-3.593 1.168-4.424 0-1.448-.267-2.62-.786-3.104a1.9 1.9 0 0 0-1.317-.526c-.492 0-1.374.265-1.761 1.228-.387 1.012-.332 2.09-.332 2.39 0 .158-.054.975.201 2.004.231.928.573 1.774 1.021 2.516.068.127.147.254.218.364.042.066-1.513 1.845-3.536 2.368-.304-.471-1.001-1.62-1.355-2.744-.202-.642-.756-2.206-.756-4.496 0-2.29.481-3.566.635-4.025.083-.248.684-1.622 1.986-2.68C59.46 9.068 61.19 9 61.716 9c1.282 0 2.64.37 4.033 1.62zM23.56 25.535a9.032 9.032 0 0 0 1.667.198c1.71 0 3.124-.543 3.728-.843.29-.138 2.343-1.319 3.476-3.172 1.464-2.396 1.312-4.843 1.312-6.37V1.046c0-.656.594-1.046 1.07-1.046h2.125C37.524 0 38 .518 38 1.072v16.051c0 .514.008 1.325-.305 2.822-.257 1.233-1.007 3.384-2.323 5.073-1.12 1.439-2.437 2.585-4.097 3.458-2.306 1.245-4.588 1.441-5.056 1.47-.644.058-1.052.054-1.052.054s-1.186.008-2.587-.269a12.89 12.89 0 0 1-2.58-.844c1.68-.98 3.178-2.824 3.56-3.352z"/>
</svg>
