<svg xmlns="http://www.w3.org/2000/svg" width="99" height="37" viewBox="0 0 99 37">
    <path fill="#00AEEF" fill-rule="evenodd" d="M92.513 16v4.571c0 1.983-.266 3.496-.846 5.034-.58 1.537-1.544 3.537-3.098 5.229-1.554 1.691-3.144 3.08-6.382 4.287-3.238 1.208-6.495.93-8.187.574 2.592-1.248 4.769-3.126 6.432-5.412.774-.364 2.873-.975 4.849-3.535 1.699-2.23 2.07-4.556 2.07-6.177V16H84.65c-.348 0-.65-.34-.65-.763v-1.466c0-.479.339-.771.656-.771h2.696l.002-5.285c0-.687.046-3.3 2.37-5.567C92.048-.12 94.53 0 95.16 0h2.585C98.344.001 99 .535 99 1.282V3.84c0 .668-.54 1.297-1.306 1.297h-2.518c-2.582 0-2.663 2.571-2.663 2.571V13h2.836c.378 0 .651.39.651.757v1.514c0 .433-.346.729-.642.729h-2.845zm-64.278-2.963c.882.787 1.93 2.392 2.177 3.313.693 2.44.971 5.695-.288 9.357-.498 1.254-.796 2.02-1.575 3.217-2.902 4.45-7.082 6.171-9.856 6.753-1.698.333-3.137.323-3.137.323s-.494.006-1.274-.065c-.568-.034-3.334-.27-6.13-1.763-2.011-1.048-3.607-2.424-4.966-4.15C1.591 27.995.681 25.414.37 23.935-.009 22.138 0 21.165 0 20.548V1.286C0 .622.577 0 1.29 0h2.576c.576 0 1.297.468 1.297 1.256v17.161c0 1.833-.184 4.77 1.59 7.644 1.374 2.225 3.864 3.641 4.214 3.807.731.36 2.445 1.011 4.52 1.011.61-.01 2.76-.12 4.97-1.286 1.663-.876 3.134-2.435 3.908-3.78 1.345-2.336 1.435-4.258 1.435-5.242 0-1.715-.33-3.105-.966-3.678a2.382 2.382 0 0 0-1.618-.623c-.604 0-1.688.314-2.164 1.455-.475 1.199-.407 2.477-.407 2.832 0 .187-.067 1.155.247 2.374.284 1.1.704 2.102 1.254 2.981.084.152.18.302.268.432.051.078-1.859 2.186-4.344 2.806-.373-.559-1.23-1.92-1.665-3.251-.248-.761-.929-2.614-.929-5.328 0-2.713.592-4.226.78-4.77.102-.294.841-1.922 2.44-3.175 1.816-1.429 3.94-1.51 4.585-1.51 1.575 0 3.244.44 4.955 1.92zm33.04.892c.87.792 1.903 2.403 2.145 3.329.683 2.452.957 5.721-.283 9.4-.49 1.26-.785 2.03-1.552 3.233a15.308 15.308 0 0 1-9.712 6.785c-1.674.334-3.091.324-3.091.324s-.487.006-1.256-.065c-.559-.035-3.285-.271-6.04-1.772a15.71 15.71 0 0 1-.486-.27c1.293-.99 2.948-2.717 3.627-3.883.845.366 2.335.845 4.085.845.602-.01 2.72-.12 4.898-1.292 1.639-.88 3.088-2.446 3.851-3.798 1.325-2.347 1.414-4.277 1.414-5.266 0-1.724-.324-3.12-.952-3.695a2.32 2.32 0 0 0-1.594-.626c-.596 0-1.663.315-2.132 1.461-.469 1.205-.402 2.489-.402 2.846 0 .188-.065 1.16.244 2.385.28 1.105.693 2.112 1.236 2.995.082.152.177.303.263.434.051.078-1.831 2.196-4.28 2.82-.368-.562-1.212-1.93-1.64-3.267-.245-.765-.916-2.627-.916-5.353s.583-4.246.77-4.792c.1-.295.828-1.931 2.403-3.19C53.664 12.08 55.757 12 56.393 12c1.552 0 3.196.441 4.882 1.93zm18 0c.87.792 1.903 2.403 2.145 3.329.684 2.452.957 5.721-.283 9.4-.49 1.26-.784 2.03-1.552 3.233a15.308 15.308 0 0 1-9.712 6.785c-1.673.334-3.09.324-3.09.324s-.489.006-1.257-.065c-.559-.035-3.285-.271-6.04-1.772a15.229 15.229 0 0 1-.486-.27c1.292-.99 2.948-2.717 3.627-3.883.845.366 2.335.845 4.085.845.602-.01 2.72-.12 4.898-1.292 1.639-.88 3.088-2.446 3.851-3.798 1.325-2.347 1.414-4.277 1.414-5.266 0-1.724-.324-3.12-.952-3.695a2.321 2.321 0 0 0-1.594-.626c-.596 0-1.664.315-2.132 1.461-.468 1.205-.402 2.489-.402 2.846 0 .188-.065 1.16.244 2.385.28 1.105.693 2.112 1.236 2.995.082.152.177.303.263.434.051.078-1.831 2.196-4.28 2.82-.368-.562-1.212-1.93-1.64-3.267-.245-.765-.916-2.627-.916-5.353s.583-4.246.769-4.792c.1-.295.829-1.931 2.404-3.19C71.664 12.08 73.757 12 74.393 12c1.552 0 3.196.441 4.882 1.93zM28.351 30.642c.962.199 1.713.231 2.036.237 2.091 0 3.82-.65 4.557-1.012.353-.165 2.863-1.581 4.248-3.806 1.79-2.875 1.603-5.81 1.603-7.644V1.256c0-.788.727-1.256 1.308-1.256h2.598C45.419 0 46 .622 46 1.286v19.262c0 .617.01 1.59-.372 3.386-.314 1.48-1.232 4.06-2.84 6.088-1.37 1.726-2.979 3.102-5.008 4.15-2.818 1.493-5.607 1.729-6.18 1.763-.786.07-1.284.065-1.284.065s-1.45.01-3.163-.323A15.963 15.963 0 0 1 24 34.664c2.054-1.175 3.884-3.389 4.35-4.022z"/>
</svg>
